<svg xmlns="http://www.w3.org/2000/svg" width="48" height="48" viewBox="0 0 48 48" fill="none">
  <!-- Background -->
  <rect width="44" height="44" x="2" y="2" rx="10" fill="#FAF7F0" stroke="#0B1120" stroke-width="3"/>
  <!-- Trophy body -->
  <path d="M18 14h12v8c0 4-3 7-6 8-3-1-6-4-6-8v-8z" fill="#D4A017" stroke="#0B1120" stroke-width="2" stroke-linejoin="round"/>
  <!-- Left handle -->
  <path d="M18 16h-3c-2 0-3 2-3 4s1 4 3 4h3" fill="none" stroke="#0B1120" stroke-width="2" stroke-linecap="round"/>
  <!-- Right handle -->
  <path d="M30 16h3c2 0 3 2 3 4s-1 4-3 4h-3" fill="none" stroke="#0B1120" stroke-width="2" stroke-linecap="round"/>
  <!-- Stem -->
  <rect x="22" y="30" width="4" height="4" rx="1" fill="#0B1120"/>
  <!-- Base -->
  <rect x="17" y="34" width="14" height="3" rx="1.5" fill="#16A34A" stroke="#0B1120" stroke-width="1.5"/>
</svg>